<?xml version="1.0" encoding="UTF-8"?>
<svg id="Layer_1" xmlns="http://www.w3.org/2000/svg" version="1.1" viewBox="0 0 200 33">
  <!-- Generator: Adobe Illustrator 29.6.1, SVG Export Plug-In . SVG Version: 2.1.1 Build 9)  -->
  <defs>
    <style>
      .st0 {
        fill-rule: evenodd;
      }

      .st0, .st1 {
        fill: #fff;
      }
    </style>
  </defs>
  <g>
    <path class="st0" d="M18.27,21.13h-5.47c-1.94,0-3.37-.17-4.29-.5-2.92-1.04-4.38-3.69-4.38-7.93V.29h4.34v12.26c0,1.34.05,2.2.15,2.57.43,1.7,1.95,2.55,4.56,2.55h5.1v3.45h-.01Z"/>
    <path class="st0" d="M33.37,12.47l-3.14-8.01-2.99,8.01h6.13ZM41.5,21.13h-4.82l-1.89-4.93h-8.97l-1.84,4.93h-4.59L28.09.29h4.62s8.79,20.84,8.79,20.84Z"/>
    <path class="st0" d="M69.02,12.59h-12.4v8.53h-4.32v-9.56c0-2.69.16-4.65.47-5.89.91-3.59,4.13-5.39,9.66-5.39h6.59v3.65h-6.96c-3.63,0-5.45,1.68-5.45,5.05h12.4v3.6h.01Z"/>
    <path class="st0" d="M83.1,12.47l-3.13-8.01-2.99,8.01h6.13-.01ZM91.24,21.13h-4.83l-1.89-4.93h-8.97l-1.84,4.93h-4.59L77.83.29h4.62s8.79,20.84,8.79,20.84Z"/>
    <polygon class="st0" points="110.82 21.13 105.78 21.13 96.9 5.38 97.11 21.13 92.67 21.13 92.67 .29 98.14 .29 106.58 15.27 106.37 .29 110.82 .29 110.82 21.13"/>
    <polygon class="st0" points="130.68 3.96 123.96 3.96 123.96 21.13 119.49 21.13 119.49 3.96 112.83 3.96 112.83 .31 130.68 .31 130.68 3.96"/>
    <path class="st0" d="M143.95,12.47l-3.14-8.01-2.99,8.01h6.13ZM152.09,21.13h-4.83l-1.89-4.93h-8.97l-1.84,4.93h-4.58L138.69.29h4.61s8.79,20.84,8.79,20.84Z"/>
    <polygon class="st0" points="171.67 21.13 166.63 21.13 157.75 5.38 157.95 21.13 153.52 21.13 153.52 .29 158.99 .29 167.42 15.27 167.22 .29 171.67 .29 171.67 21.13"/>
    <path class="st0" d="M187.01,12.47l-3.13-8.01-2.99,8.01h6.12ZM195.15,21.13h-4.82l-1.89-4.93h-8.97l-1.84,4.93h-4.59L181.74.29h4.62s8.79,20.84,8.79,20.84Z"/>
  </g>
  <g>
    <path class="st1" d="M51.05,24.5h.53l2.43,6.53c.14.38.31.97.31.97h.02s.17-.59.31-.97l2.45-6.53h.53l-3.02,8.08h-.54s-3.02-8.08-3.02-8.08Z"/>
    <path class="st1" d="M63.88,24.36c2.25,0,4.08,1.8,4.08,4.12s-1.83,4.23-4.08,4.23-4.08-1.86-4.08-4.23,1.83-4.12,4.08-4.12ZM63.88,32.24c1.97,0,3.57-1.64,3.57-3.76s-1.59-3.65-3.57-3.65-3.57,1.58-3.57,3.65,1.59,3.76,3.57,3.76Z"/>
    <path class="st1" d="M71.22,24.5h2.54c2.4,0,4.03,1.48,4.03,4.04s-1.63,4.04-4.03,4.04h-2.54v-8.08ZM73.68,32.11c2.15,0,3.59-1.26,3.59-3.58s-1.44-3.58-3.59-3.58h-1.96v7.15h1.96Z"/>
    <path class="st1" d="M85.01,29.78h-3.43l-1.04,2.79h-.53l3.02-8.08h.53l3.02,8.08h-.53l-1.05-2.79h.01ZM83.29,25.07s-.17.62-.3.97l-1.23,3.28h3.08l-1.22-3.28c-.13-.35-.3-.97-.3-.97h-.03Z"/>
    <path class="st1" d="M93.15,32.18l4.44-6.48c.28-.42.55-.74.55-.74v-.02s-.18.02-.59.02h-4.17v-.46h5.35v.39l-4.44,6.48c-.28.42-.55.74-.55.74v.02s.18-.02.59-.02h4.44v.46h-5.63v-.39h0Z"/>
    <path class="st1" d="M105.94,29.78h-3.43l-1.04,2.79h-.53l3.02-8.08h.53l3.02,8.08h-.53l-1.05-2.79h.01ZM104.22,25.07s-.17.62-.3.97l-1.23,3.28h3.08l-1.22-3.28c-.13-.35-.3-.97-.3-.97h-.03Z"/>
    <path class="st1" d="M114.82,24.5h2.71c1.18,0,2.04.78,2.04,2.02,0,.88-.43,1.47-1.05,1.77v.02c.8.22,1.37,1,1.37,2.04,0,1.35-.96,2.23-2.25,2.23h-2.83v-8.08h.01ZM117.52,28.1c.9,0,1.53-.62,1.53-1.58s-.6-1.56-1.55-1.56h-2.19v3.14h2.21ZM117.6,32.11c1.08,0,1.78-.67,1.78-1.77s-.75-1.79-1.79-1.79h-2.27v3.55h2.28Z"/>
    <path class="st1" d="M123.17,24.5h.5v5.28c0,1.52.99,2.46,2.52,2.46s2.53-.93,2.53-2.48v-5.26h.5v5.31c0,1.78-1.23,2.91-3.01,2.91s-3.02-1.13-3.02-2.91v-5.31h-.02Z"/>
    <path class="st1" d="M132.91,24.5h2.54c2.4,0,4.03,1.48,4.03,4.04s-1.63,4.04-4.03,4.04h-2.54v-8.08ZM135.37,32.11c2.15,0,3.59-1.26,3.59-3.58s-1.44-3.58-3.59-3.58h-1.96v7.15h1.96Z"/>
    <path class="st1" d="M142.67,24.5h.5v5.28c0,1.52.99,2.46,2.52,2.46s2.53-.93,2.53-2.48v-5.26h.5v5.31c0,1.78-1.23,2.91-3.01,2.91s-3.02-1.13-3.02-2.91v-5.31h-.02Z"/>
    <path class="st1" d="M155.87,24.36c1.92,0,2.88,1.02,2.88,1.02l-.3.37s-.96-.91-2.57-.91c-1.98,0-3.5,1.56-3.5,3.65s1.5,3.76,3.53,3.76c1.73,0,2.73-1.1,2.73-1.1l.31.35s-1.08,1.22-3.05,1.22c-2.35,0-4.05-1.89-4.05-4.23s1.73-4.12,4-4.12h.02ZM156.32,22.64h.65l-.91,1.28h-.51l.77-1.28Z"/>
    <path class="st1" d="M162.2,24.5h.46l4.6,6.33c.27.37.66,1.02.66,1.02h.02s-.06-.61-.06-1.02v-6.33h.5v8.08h-.46l-4.6-6.33c-.27-.37-.66-1.02-.66-1.02h-.02s.06.61.06,1.02v6.33h-.5v-8.08Z"/>
    <path class="st1" d="M175.73,24.36c2.25,0,4.08,1.8,4.08,4.12s-1.83,4.23-4.08,4.23-4.08-1.86-4.08-4.23,1.83-4.12,4.08-4.12ZM175.73,32.24c1.97,0,3.57-1.64,3.57-3.76s-1.59-3.65-3.57-3.65-3.57,1.58-3.57,3.65,1.59,3.76,3.57,3.76Z"/>
    <path class="st1" d="M182.8,31.33s.82.9,2.16.9c1,0,1.8-.62,1.8-1.59,0-2.3-4.13-1.66-4.13-4.19,0-1.07.96-2.09,2.42-2.09,1.32,0,2.05.75,2.05.75l-.28.43s-.69-.69-1.77-.69c-1.2,0-1.92.81-1.92,1.59,0,2.13,4.13,1.48,4.13,4.18,0,1.17-.9,2.1-2.34,2.1-1.59,0-2.47-1-2.47-1l.33-.38h.02Z"/>
    <path class="st1" d="M192.36,24.96h-3.01v-.46h6.52v.46h-3.01v7.62h-.5v-7.62h0Z"/>
  </g>
</svg>